<?xml version="1.0" encoding="utf-8"?>
<!-- Generator: Adobe Illustrator 16.0.0, SVG Export Plug-In . SVG Version: 6.00 Build 0)  -->
<!DOCTYPE svg PUBLIC "-//W3C//DTD SVG 1.1//EN" "http://www.w3.org/Graphics/SVG/1.1/DTD/svg11.dtd">
<svg version="1.1" id="Layer_1" xmlns="http://www.w3.org/2000/svg" xmlns:xlink="http://www.w3.org/1999/xlink" x="0px" y="0px"
	 width="483.764px" height="96.075px" viewBox="0 0 483.764 96.075" enable-background="new 0 0 483.764 96.075"
	 xml:space="preserve">
<g>
	<path fill="#B0263D" d="M83.615,63.43c-1.463,0.301-3.452,0.331-3.695,0.331c-5.303,0-6.574-3.538-6.574-5.44
		c0-2.432,2.151-5.521,6.243-5.521c0.825,0,1.127,0.051,2.343,0.303c0.137,0.028,0.332,0.055,0.549,0.055
		c0.416,0,0.637-0.168,0.8-0.278h0.475l0.164,3.396H83.45c-0.169-0.745-0.361-1.38-0.828-1.848c-0.745-0.778-1.93-1.188-3.009-1.188
		c-2.43,0-4.061,2.182-4.061,4.801c0,2.875,1.711,5.088,4.201,5.088c1.296,0,1.983-0.445,1.983-1.467v-0.69
		c0-0.577-0.082-1.413-1.458-1.413h-0.611v-0.467h5.772v0.467H84.86c-0.688,0-1.245,0.635-1.245,1.44V63.43z"/>
	<path fill="#B0263D" d="M92.994,58.32h1.381c1.161,0,2.514-0.413,2.514-2.432c0-1.409-0.635-2.374-2.239-2.374h-1.656V58.32z
		 M91.058,55.312c0-1.576-0.61-1.687-1.708-1.797v-0.467h5.249c0.825,0,4.309,0,4.309,2.759c0,1.046-0.722,2.128-2.43,2.624
		c1.1,0.525,1.602,1.187,3.091,3.231c0.997,1.353,1.518,1.38,2.482,1.467v0.466h-3.144c-0.61-0.639-0.8-0.882-2.32-2.958
		c-1.302-1.796-1.937-1.796-2.683-1.796h-0.91V61.3c0,1.605,0.581,1.714,1.712,1.829v0.466H89.35v-0.466
		c1.134-0.115,1.708-0.224,1.708-1.829V55.312z"/>
	<path fill="#B0263D" d="M111.394,58.704l-1.576-4.363l-1.629,4.363H111.394z M107.224,61.464c-0.107,0.252-0.164,0.559-0.164,0.719
		c0,0.721,0.798,0.885,1.129,0.945v0.466h-3.422v-0.466c1.024-0.224,1.296-0.445,1.962-2.267l2.978-8.011h1.495l2.956,8.093
		c0.603,1.656,0.854,2.07,2.179,2.185v0.466h-4.943v-0.466c0.606-0.06,1.24-0.142,1.24-0.721c0-0.225-0.108-0.583-0.19-0.747
		l-0.799-2.235h-3.673L107.224,61.464z"/>
	<path fill="#B0263D" d="M123.325,61.329c0,1.325,0.107,1.8,1.876,1.8c1.463,0,4.696-0.475,4.696-4.669
		c0-3.177-1.796-4.944-4.503-4.944h-2.069V61.329z M121.413,55.312c0-1.576-0.604-1.687-1.738-1.797v-0.467h5.72
		c1.518,0,2.953,0,4.53,1.097c1.349,0.97,2.177,2.518,2.177,4.175c0,1.768-0.91,3.396-2.4,4.334c-1.518,0.94-3.374,0.94-4.307,0.94
		h-5.72v-0.466c1.244-0.115,1.738-0.251,1.738-1.829V55.312z"/>
	<path fill="#B0263D" d="M136.84,55.312c0-1.576-0.603-1.687-1.733-1.797v-0.467h5.326v0.467c-1.137,0.11-1.738,0.221-1.738,1.797
		v3.698c0,1.293,0.136,2.098,0.467,2.706c0.581,0.938,1.489,1.298,2.21,1.298c1.849,0,2.79-1.271,3.395-2.098v-5.604
		c0-1.576-0.439-1.768-1.737-1.877v-0.387h5.413v0.467c-1.135,0.11-1.743,0.221-1.743,1.797V61.3c0,1.605,0.608,1.714,1.743,1.829
		v0.466h-3.676v-1.906c-0.796,1.024-1.686,2.153-3.868,2.153c-2.176,0-3.197-1.216-3.561-1.797
		c-0.499-0.853-0.499-1.792-0.499-2.538V55.312z"/>
	<path fill="#B0263D" d="M158.645,58.704l-1.572-4.363l-1.629,4.363H158.645z M154.479,61.464c-0.113,0.252-0.171,0.559-0.171,0.719
		c0,0.721,0.806,0.885,1.136,0.945v0.466h-3.424v-0.466c1.024-0.224,1.298-0.445,1.961-2.267l2.98-8.011h1.487l2.957,8.093
		c0.608,1.656,0.855,2.07,2.181,2.185v0.466h-4.942v-0.466c0.612-0.06,1.244-0.142,1.244-0.721c0-0.225-0.112-0.583-0.19-0.747
		l-0.806-2.235h-3.672L154.479,61.464z"/>
	<path fill="#B0263D" d="M171.44,61.3c0,1.605,0.606,1.714,1.711,1.829v0.466h-5.41v-0.466c1.13-0.115,1.738-0.224,1.738-1.829
		v-7.563h-1.656c-1.824,0-1.991,1.437-2.073,2.044h-0.441l0.082-3.258h0.467c0.423,0.329,0.691,0.525,1.628,0.525h5.942
		c0.938,0,1.214-0.197,1.629-0.525h0.467l0.084,3.258h-0.439c-0.087-0.607-0.251-2.044-2.078-2.044h-1.653V61.3z"/>
	<path fill="#B0263D" d="M182.824,61.358c0,1.771,0.224,1.771,1.322,1.771h1.629c0.775,0,1.799-0.087,2.435-1.575h0.502
		l-0.502,2.041h-9.002v-0.466c1.272-0.115,1.741-0.251,1.741-1.829v-5.988c0-1.516-0.469-1.687-1.741-1.797v-0.467h8.837
		l0.165,1.985h-0.499c-0.302-1.518-1.436-1.518-2.377-1.518h-2.51v4.526h1.879c1.6,0,1.683-0.856,1.738-1.433h0.472v3.509h-0.472
		c-0.055-0.61-0.083-1.438-1.738-1.438h-1.879V61.358z"/>
	<path fill="#B0263D" d="M207.124,55.973h-0.449c-0.187-1.681-1.043-2.733-2.591-2.733c-1.212,0-1.851,0.825-1.851,1.546
		c0,0.911,0.471,1.187,2.789,2.541c1.939,1.132,2.597,2.29,2.597,3.48c0,1.407-1.24,3.034-3.448,3.034c-0.471,0-0.886,0-1.963-0.526
		c-0.109-0.055-0.273-0.106-0.441-0.106c-0.358,0-0.44,0.243-0.495,0.385h-0.475v-3.401h0.475c0.302,1.662,1.098,3.151,2.842,3.151
		c0.991,0,2.014-0.69,2.014-1.848c0-1.216-0.828-1.712-2.844-2.872c-1.13-0.667-2.373-1.492-2.373-3.04
		c0-1.409,1.074-2.786,3.067-2.786c0.384,0,0.718,0.029,1.043,0.135c0.859,0.25,0.886,0.25,1.051,0.25c0.306,0,0.5-0.17,0.603-0.25
		h0.449V55.973z"/>
	<path fill="#B0263D" d="M222.088,56.358h-0.443c-0.216-0.745-0.356-1.161-0.72-1.627c-0.963-1.267-2.041-1.464-2.869-1.464
		c-2.734,0-3.975,2.565-3.975,4.891c0,3.281,2.214,4.856,4.199,4.856c0.299,0,2.259,0,3.726-1.984l0.357,0.27
		c-0.384,0.665-1.459,2.542-4.75,2.542c-3.808,0-5.739-3.009-5.739-5.411c0-3.202,2.868-5.63,5.798-5.63
		c0.964,0,2.043,0.215,2.539,0.331c0.191,0.027,0.446,0.082,0.632,0.082c0.222,0,0.362-0.11,0.613-0.277h0.44L222.088,56.358z"/>
	<path fill="#B0263D" d="M228.107,55.312c0-1.576-0.608-1.687-1.716-1.797v-0.467h5.358v0.467c-1.134,0.11-1.737,0.221-1.737,1.797
		v2.596h6.13v-2.596c0-1.576-0.612-1.687-1.742-1.797v-0.467h5.382v0.467c-1.134,0.11-1.733,0.221-1.733,1.797V61.3
		c0,1.605,0.6,1.714,1.733,1.829v0.466h-5.382v-0.466c1.13-0.115,1.742-0.224,1.742-1.829v-2.622h-6.13V61.3
		c0,1.605,0.603,1.714,1.737,1.829v0.466h-5.358v-0.466c1.136-0.115,1.716-0.224,1.716-1.829V55.312z"/>
	<path fill="#B0263D" d="M250.237,53.294c-2.793,0-4.06,2.318-4.06,5.081c0,3.038,1.568,4.969,4.06,4.969
		c1.818,0,4.106-1.161,4.106-5.024C254.343,54.318,251.915,53.294,250.237,53.294z M250.201,63.841
		c-3.808,0-6.236-2.733-6.236-5.521c0-2.958,2.624-5.521,6.154-5.521c3.573,0,6.437,2.346,6.437,5.542
		C256.556,61.167,254.049,63.841,250.201,63.841z"/>
	<path fill="#B0263D" d="M266.883,53.294c-2.79,0-4.06,2.318-4.06,5.081c0,3.038,1.574,4.969,4.06,4.969
		c1.824,0,4.115-1.161,4.115-5.024C270.999,54.318,268.57,53.294,266.883,53.294z M266.853,63.841c-3.809,0-6.242-2.733-6.242-5.521
		c0-2.958,2.625-5.521,6.164-5.521c3.562,0,6.434,2.346,6.434,5.542C273.208,61.167,270.692,63.841,266.853,63.841z"/>
	<path fill="#B0263D" d="M280.981,61.91c0,0.882,0.307,1.077,1.298,1.077h1.93c1.327,0,1.467-0.303,2.294-2.322h0.495l-0.851,2.93
		h-8.787v-0.466c1.137-0.115,1.742-0.224,1.742-1.829v-5.988c0-1.576-0.604-1.687-1.742-1.797v-0.467h5.362v0.467
		c-1.325,0.11-1.742,0.387-1.742,1.797V61.91z"/>
	<path fill="#B0263D" d="M300.214,55.357c-2.249,0-3.269,1.868-3.269,4.084c0,2.443,1.268,4.002,3.269,4.002
		c1.466,0,3.306-0.933,3.306-4.042C303.52,56.181,301.567,55.357,300.214,55.357z M300.187,63.841c-3.061,0-5.019-2.2-5.019-4.44
		c0-2.377,2.107-4.442,4.955-4.442c2.864,0,5.174,1.886,5.174,4.467C305.296,61.688,303.272,63.841,300.187,63.841z"/>
	<path fill="#B0263D" d="M310.789,61.798c0,1.243,0.403,1.378,1.38,1.466v0.378h-4.372v-0.378c0.979-0.087,1.396-0.206,1.396-1.466
		v-4.822c0-1.263-0.491-1.351-1.396-1.438v-0.376h7.06l0.067,1.683h-0.376c-0.115-0.555-0.272-1.307-1.844-1.307h-1.915v3.463h1.693
		c1.15,0,1.465-0.353,1.554-1.156h0.376v2.952h-0.376c-0.027-0.729-0.129-1.198-1.554-1.198h-1.693V61.798z"/>
	<path fill="#B0263D" d="M327.894,61.358c0,1.771,0.225,1.771,1.326,1.771h1.633c0.771,0,1.793-0.087,2.428-1.575h0.494
		l-0.494,2.041h-9.002v-0.466c1.271-0.115,1.741-0.251,1.741-1.829v-5.988c0-1.516-0.471-1.687-1.741-1.797v-0.467h8.838
		l0.164,1.985h-0.502c-0.291-1.518-1.428-1.518-2.373-1.518h-2.512v4.526h1.879c1.602,0,1.684-0.856,1.742-1.433h0.467v3.509h-0.467
		c-0.059-0.61-0.086-1.438-1.742-1.438h-1.879V61.358z"/>
	<path fill="#B0263D" d="M341.937,61.329c0,1.325,0.119,1.8,1.875,1.8c1.473,0,4.703-0.475,4.703-4.669
		c0-3.177-1.801-4.944-4.502-4.944h-2.076V61.329z M340.03,55.312c0-1.576-0.604-1.687-1.73-1.797v-0.467h5.713
		c1.514,0,2.949,0,4.529,1.097c1.346,0.97,2.178,2.518,2.178,4.175c0,1.768-0.914,3.396-2.404,4.334
		c-1.518,0.94-3.365,0.94-4.303,0.94H338.3v-0.466c1.236-0.115,1.73-0.251,1.73-1.829V55.312z"/>
	<path fill="#B0263D" d="M355.31,55.312c0-1.576-0.607-1.687-1.742-1.797v-0.467h5.332v0.467c-1.135,0.11-1.742,0.221-1.742,1.797
		v3.698c0,1.293,0.137,2.098,0.465,2.706c0.586,0.938,1.496,1.298,2.213,1.298c1.852,0,2.787-1.271,3.395-2.098v-5.604
		c0-1.576-0.439-1.768-1.738-1.877v-0.387h5.414v0.467c-1.135,0.11-1.742,0.221-1.742,1.797V61.3c0,1.605,0.607,1.714,1.742,1.829
		v0.466h-3.676v-1.906c-0.801,1.024-1.684,2.153-3.865,2.153c-2.18,0-3.199-1.216-3.559-1.797c-0.496-0.853-0.496-1.792-0.496-2.538
		V55.312z"/>
	<path fill="#B0263D" d="M381.101,56.358h-0.443c-0.215-0.745-0.357-1.161-0.717-1.627c-0.967-1.267-2.039-1.464-2.869-1.464
		c-2.738,0-3.975,2.565-3.975,4.891c0,3.281,2.205,4.856,4.193,4.856c0.307,0,2.264,0,3.732-1.984l0.355,0.27
		c-0.383,0.665-1.467,2.542-4.75,2.542c-3.805,0-5.742-3.009-5.742-5.411c0-3.202,2.871-5.63,5.797-5.63
		c0.969,0,2.045,0.215,2.543,0.331c0.191,0.027,0.438,0.082,0.635,0.082c0.221,0,0.361-0.11,0.609-0.277h0.438L381.101,56.358z"/>
	<path fill="#B0263D" d="M391.347,58.704l-1.574-4.363l-1.633,4.363H391.347z M387.181,61.464c-0.113,0.252-0.174,0.559-0.174,0.719
		c0,0.721,0.809,0.885,1.133,0.945v0.466h-3.422v-0.466c1.021-0.224,1.301-0.445,1.961-2.267l2.98-8.011h1.49l2.957,8.093
		c0.604,1.656,0.855,2.07,2.178,2.185v0.466h-4.938v-0.466c0.607-0.06,1.246-0.142,1.246-0.721c0-0.225-0.113-0.583-0.201-0.747
		l-0.795-2.235h-3.676L387.181,61.464z"/>
	<path fill="#B0263D" d="M403.989,61.3c0,1.605,0.611,1.714,1.721,1.829v0.466h-5.412v-0.466c1.133-0.115,1.736-0.224,1.736-1.829
		v-7.563h-1.658c-1.824,0-1.99,1.437-2.068,2.044h-0.441l0.082-3.258h0.465c0.416,0.329,0.699,0.525,1.629,0.525h5.936
		c0.941,0,1.215-0.197,1.627-0.525h0.479l0.078,3.258h-0.443c-0.078-0.607-0.252-2.044-2.072-2.044h-1.656V61.3z"/>
	<path fill="#B0263D" d="M416.382,61.3c0,1.605,0.605,1.714,1.736,1.829v0.466h-5.383v-0.466c1.129-0.115,1.738-0.224,1.738-1.829
		v-5.988c0-1.576-0.609-1.687-1.738-1.797v-0.467h5.383v0.467c-1.131,0.11-1.736,0.221-1.736,1.797V61.3z"/>
	<path fill="#B0263D" d="M427.821,53.294c-2.793,0-4.059,2.318-4.059,5.081c0,3.038,1.57,4.969,4.059,4.969
		c1.818,0,4.113-1.161,4.113-5.024C431.935,54.318,429.503,53.294,427.821,53.294z M427.794,63.841
		c-3.809,0-6.236-2.733-6.236-5.521c0-2.958,2.615-5.521,6.152-5.521c3.559,0,6.434,2.346,6.434,5.542
		C434.144,61.167,431.63,63.841,427.794,63.841z"/>
	<path fill="#B0263D" d="M439.612,55.781c0-1.104,0.027-1.937-1.988-2.266v-0.467h3.225l7.762,7.869v-5.604
		c0-1.576-0.631-1.687-1.766-1.797v-0.467h4.303v0.467c-1.125,0.11-1.732,0.221-1.732,1.797v8.394h-0.439l-8.564-8.478v6.13
		c0,0.771,0.139,1.771,1.35,1.771h0.613v0.466h-4.473v-0.466c1.131-0.115,1.711-0.224,1.711-1.829V55.781z"/>
	<path d="M74.695,34.868c0-1.818-0.702-1.952-1.985-2.073V32.25h6.206v0.545c-1.316,0.121-2.017,0.255-2.017,2.073v3.011h7.098
		v-3.011c0-1.818-0.7-1.952-2.013-2.073V32.25h6.235v0.545c-1.31,0.121-2.021,0.255-2.021,2.073v6.941
		c0,1.858,0.71,1.986,2.021,2.111v0.548h-6.235V43.92c1.313-0.125,2.013-0.253,2.013-2.111v-3.034h-7.098v3.034
		c0,1.858,0.7,1.986,2.017,2.111v0.548H72.71V43.92c1.309-0.125,1.985-0.253,1.985-2.111V34.868z"/>
	<path d="M99.989,38.804l-1.824-5.056l-1.883,5.056H99.989z M95.159,42.004c-0.129,0.288-0.19,0.639-0.19,0.833
		c0,0.83,0.927,1.023,1.314,1.083v0.548h-3.967V43.92c1.184-0.253,1.498-0.51,2.271-2.621l3.451-9.274h1.727l3.424,9.373
		c0.707,1.917,0.988,2.397,2.523,2.522v0.548h-5.722V43.92c0.702-0.06,1.441-0.157,1.441-0.828c0-0.254-0.131-0.673-0.224-0.863
		l-0.927-2.588h-4.256L95.159,42.004z"/>
	<path d="M114.348,38.357h1.6c1.342,0,2.911-0.478,2.911-2.812c0-1.631-0.733-2.75-2.593-2.75h-1.917V38.357z M112.108,34.868
		c0-1.818-0.698-1.952-1.981-2.073V32.25h6.074c0.959,0,4.991,0,4.991,3.196c0,1.216-0.832,2.468-2.816,3.04
		c1.28,0.604,1.857,1.375,3.585,3.742c1.149,1.566,1.759,1.601,2.879,1.691v0.548h-3.648c-0.706-0.737-0.929-1.023-2.687-3.424
		c-1.506-2.08-2.24-2.08-3.101-2.08h-1.057v2.844c0,1.858,0.671,1.986,1.984,2.111v0.548h-6.206V43.92
		c1.313-0.125,1.981-0.253,1.981-2.111V34.868z"/>
	<path d="M132.446,44.625h-0.538l-4.192-9.59c-0.611-1.348-0.926-2.119-2.464-2.24V32.25h5.857v0.545
		c-0.866,0.121-1.444,0.22-1.444,1.055c0,0.287,0,0.317,0.357,1.084l2.875,6.748l2.785-6.619c0.161-0.384,0.287-0.739,0.287-1.089
		c0-0.925-0.898-1.083-1.439-1.18V32.25h4.377v0.545c-0.767,0.063-1.503,0.188-2.395,2.269L132.446,44.625z"/>
	<path d="M147.356,38.804l-1.828-5.056l-1.885,5.056H147.356z M142.523,42.004c-0.128,0.288-0.19,0.639-0.19,0.833
		c0,0.83,0.926,1.023,1.31,1.083v0.548h-3.963V43.92c1.18-0.253,1.502-0.51,2.271-2.621l3.452-9.274h1.725l3.423,9.373
		c0.708,1.917,0.994,2.397,2.527,2.522v0.548h-5.722V43.92c0.702-0.06,1.438-0.157,1.438-0.828c0-0.254-0.127-0.673-0.222-0.863
		l-0.93-2.588h-4.257L142.523,42.004z"/>
	<path d="M161.714,38.357h1.599c1.343,0,2.908-0.478,2.908-2.812c0-1.631-0.738-2.75-2.591-2.75h-1.917V38.357z M159.477,34.868
		c0-1.818-0.71-1.952-1.985-2.073V32.25h6.075c0.958,0,4.993,0,4.993,3.196c0,1.216-0.831,2.468-2.818,3.04
		c1.283,0.604,1.859,1.375,3.582,3.742c1.155,1.566,1.761,1.601,2.879,1.691v0.548h-3.643c-0.706-0.737-0.932-1.023-2.689-3.424
		c-1.502-2.08-2.239-2.08-3.106-2.08h-1.049v2.844c0,1.858,0.669,1.986,1.983,2.111v0.548h-6.206V43.92
		c1.306-0.125,1.985-0.253,1.985-2.111V34.868z"/>
	<path d="M180.135,41.844c0,1.538,0.128,2.076,2.175,2.076c1.69,0,5.437-0.538,5.437-5.397c0-3.683-2.081-5.727-5.215-5.727h-2.397
		V41.844z M177.929,34.868c0-1.818-0.707-1.952-2.017-2.073V32.25h6.62c1.759,0,3.422,0,5.242,1.282
		c1.569,1.114,2.531,2.907,2.531,4.824c0,2.049-1.057,3.935-2.787,5.025c-1.757,1.086-3.899,1.086-4.987,1.086h-6.62V43.92
		c1.439-0.125,2.017-0.287,2.017-2.111V34.868z"/>
	<path fill="#FFFFFF" d="M54.383,45.047c0.158,0,0.28-0.127,0.28-0.281c0-0.141-0.123-0.275-0.28-0.275
		c-0.155,0-0.278,0.134-0.278,0.275C54.104,44.92,54.228,45.047,54.383,45.047z"/>
</g>
<rect fill="none" width="483.764" height="96.075"/>
<g>
	<rect x="1.001" y="14.841" fill="none" width="88.25" height="72.882"/>
	<g>
		<g>
			<path fill="#FFFFFF" d="M58.346,40.73c0,0,0.849,15.588-13.673,23.302C31.287,56.847,31.735,40.73,31.735,40.73v-8.399
				c0-0.281,0.329-0.393,0.56-0.393h25.618c0.231,0,0.434,0.187,0.434,0.414V40.73z"/>
		</g>
		<path d="M48.16,43.346c-0.042-0.133-0.11-0.118-0.225-0.132c-0.183-0.021-0.308-0.185-0.402-0.31
			c-0.122-0.158-0.287-0.687-0.638-0.567c-0.561,0.19-0.801,1.221-1.016,1.272c-0.156,0.037-0.237-0.023-0.223-0.19
			c0.019-0.229,0.271-0.363,0.413-0.552c0.218-0.29,0.466-0.582,0.365-0.816c-0.153-0.356-0.411-0.259-0.668-0.397
			c-0.169-0.091-0.339-0.143-0.409-0.261c-0.067-0.115-0.063-0.198-0.232-0.198c-0.138,0-0.146,0.066-0.194,0.174
			c-0.077,0.167-0.271,0.233-0.418,0.286c-0.189,0.065-0.743,0.06-0.738,0.431c0.008,0.593,0.547,0.921,0.896,1.36
			c0.128,0.163-0.066,0.323-0.25,0.153c-0.17-0.156-0.262-0.371-0.396-0.563c-0.208-0.297-0.408-0.622-0.664-0.599
			c-0.385,0.035-0.373,0.311-0.584,0.513c-0.14,0.133-0.24,0.279-0.374,0.309c-0.132,0.028-0.21,0-0.261,0.157
			c-0.044,0.133,0.018,0.16,0.104,0.239c0.136,0.127,0.14,0.33,0.144,0.486c0.004,0.202-0.173,0.726,0.182,0.836
			c0.565,0.175,1.39-0.36,1.533-0.377c0.175-0.021,0.194,0.158,0.106,0.23c-0.177,0.147-0.433,0.135-0.658,0.204
			c-0.348,0.107-0.719,0.196-0.775,0.448c-0.084,0.376,0.182,0.45,0.307,0.713c0.084,0.173,0.19,0.313,0.179,0.45
			c-0.014,0.133-0.066,0.199,0.069,0.298c0.113,0.082,0.159,0.03,0.261-0.027c0.159-0.09,0.355-0.03,0.506,0.014
			c0.192,0.059,0.635,0.388,0.849,0.084c0.343-0.483-0.012-1.526,0.074-1.626c0.091-0.106,0.263-0.127,0.312,0.025
			c0.068,0.22-0.018,0.452-0.021,0.687c-0.006,0.363-0.036,0.745,0.186,0.875c0.332,0.199,0.483-0.032,0.774-0.071
			c0.189-0.025,0.356-0.085,0.484-0.03c0.121,0.054,0.169,0.123,0.305,0.025c0.113-0.081,0.078-0.14,0.054-0.255
			c-0.037-0.18,0.083-0.348,0.17-0.477c0.115-0.165,0.566-0.485,0.344-0.783h-0.007c-0.31-0.415-1.436-0.534-1.509-0.6
			c-0.068-0.061-0.06-0.234,0.097-0.244c0.195-0.013,0.43,0.146,0.653,0.223c0.342,0.117,0.696,0.264,0.889,0.093
			c0.29-0.254,0.118-0.47,0.171-0.758c0.036-0.189,0.03-0.366,0.121-0.469C48.131,43.528,48.212,43.504,48.16,43.346z
			 M45.162,44.677c-0.177,0-0.319-0.143-0.319-0.319c0-0.174,0.142-0.317,0.319-0.317c0.175,0,0.317,0.143,0.317,0.317
			C45.479,44.534,45.337,44.677,45.162,44.677z"/>
		<path d="M56.72,43.697c-0.042-0.133-0.109-0.118-0.226-0.131c-0.183-0.023-0.305-0.186-0.4-0.31
			c-0.123-0.16-0.288-0.687-0.64-0.568c-0.561,0.19-0.801,1.222-1.016,1.273c-0.157,0.036-0.237-0.024-0.223-0.191
			c0.019-0.229,0.271-0.365,0.413-0.553c0.219-0.289,0.465-0.579,0.365-0.815c-0.153-0.356-0.411-0.259-0.668-0.397
			c-0.169-0.091-0.339-0.142-0.408-0.26c-0.069-0.117-0.065-0.2-0.232-0.2c-0.139,0-0.146,0.066-0.196,0.173
			c-0.076,0.167-0.27,0.233-0.417,0.287c-0.189,0.066-0.742,0.061-0.738,0.431c0.008,0.594,0.547,0.921,0.898,1.36
			c0.127,0.163-0.068,0.323-0.251,0.154c-0.171-0.155-0.263-0.372-0.398-0.565c-0.207-0.296-0.407-0.621-0.663-0.598
			c-0.386,0.037-0.373,0.311-0.584,0.515c-0.14,0.131-0.24,0.277-0.373,0.307c-0.132,0.029-0.211,0-0.263,0.159
			c-0.042,0.134,0.02,0.161,0.105,0.24c0.136,0.125,0.139,0.328,0.143,0.486c0.003,0.199-0.173,0.724,0.182,0.835
			c0.565,0.176,1.389-0.359,1.533-0.377c0.175-0.02,0.196,0.157,0.106,0.23c-0.176,0.146-0.433,0.135-0.659,0.203
			c-0.347,0.107-0.717,0.198-0.774,0.447c-0.085,0.377,0.181,0.449,0.307,0.715c0.084,0.172,0.191,0.312,0.178,0.45
			c-0.013,0.131-0.064,0.2,0.071,0.297c0.113,0.083,0.158,0.032,0.26-0.025c0.16-0.09,0.356-0.031,0.506,0.014
			c0.193,0.058,0.635,0.389,0.852,0.085c0.341-0.483-0.012-1.526,0.073-1.627c0.091-0.106,0.263-0.127,0.31,0.025
			c0.069,0.221-0.016,0.453-0.022,0.687c-0.005,0.364-0.034,0.744,0.187,0.875c0.333,0.198,0.483-0.034,0.774-0.072
			c0.189-0.026,0.356-0.084,0.483-0.029c0.124,0.054,0.169,0.123,0.305,0.024c0.113-0.081,0.077-0.14,0.055-0.255
			c-0.037-0.179,0.082-0.348,0.17-0.476c0.114-0.166,0.567-0.486,0.344-0.783h-0.009c-0.309-0.415-1.435-0.536-1.508-0.6
			c-0.068-0.061-0.061-0.235,0.096-0.246c0.197-0.012,0.431,0.147,0.652,0.224c0.343,0.118,0.697,0.263,0.89,0.093
			c0.291-0.255,0.118-0.47,0.171-0.757c0.035-0.188,0.031-0.367,0.122-0.47C56.691,43.878,56.771,43.855,56.72,43.697z
			 M53.721,45.037c-0.181,0-0.327-0.146-0.327-0.327c0-0.181,0.146-0.325,0.327-0.325c0.18,0,0.327,0.145,0.327,0.325
			C54.048,44.891,53.901,45.037,53.721,45.037z"/>
		<g>
			<g>
				<path fill="#B0263D" stroke="#000000" stroke-width="0.2517" d="M58.346,40.73v-8.379c0-0.227-0.203-0.414-0.434-0.414H32.295
					c-0.231,0-0.56,0.112-0.56,0.393v8.399H58.346z"/>
			</g>
		</g>
		<g>
			<path fill="none" stroke="#000000" stroke-width="0.051" d="M54.277,55.206h-3.965v-2.58h-3.4v-2.608h-3.753v-2.843h-3.81v-2.815
				h-3.372v-2.786c0,0-2.051-0.058-2.99,0c-0.937,0.06-1.252-0.843-1.252-0.843"/>
		</g>
		<g>
			<path fill="none" stroke="#000000" stroke-width="0.2517" d="M31.735,40.73c0,0-0.448,16.117,12.938,23.302
				C59.195,56.319,58.346,40.73,58.346,40.73"/>
		</g>
		<path fill="#FFFFFF" stroke="#000000" stroke-width="0.051" d="M45.019,36.244"/>
		<path fill="#FFFFFF" stroke="#000000" stroke-width="0.051" d="M36.255,38.831"/>
		<path fill="#FFFFFF" stroke="#000000" stroke-width="0.051" d="M44.99,38.831"/>
		<path fill="#FFFFFF" stroke="#000000" stroke-width="0.051" d="M53.553,38.831"/>
		<path fill="none" d="M43.673,49.005"/>
		<g>
			<circle cx="40.985" cy="54.604" r="0.318"/>
			<path d="M50.312,55.206v-2.58h-3.4v-2.608h-3.753v-2.843h-3.81v-2.815h-3.372v-2.786c0,0-2.051-0.058-2.99,0
				c-0.937,0.06-1.252-0.843-1.252-0.843s-0.448,16.117,12.938,23.302c4.54-2.411,7.576-5.593,9.607-8.827H50.312z M43.867,53.874
				c-0.091,0.103-0.087,0.28-0.123,0.469c-0.051,0.287,0.12,0.503-0.169,0.757c-0.194,0.169-0.547,0.025-0.89-0.094
				c-0.223-0.076-0.456-0.235-0.652-0.223c-0.157,0.011-0.164,0.185-0.096,0.245c0.072,0.065,1.199,0.185,1.507,0.6h0.009
				c0.221,0.297-0.23,0.618-0.344,0.783c-0.089,0.128-0.207,0.297-0.17,0.477c0.023,0.115,0.058,0.174-0.055,0.255
				c-0.135,0.099-0.183,0.028-0.305-0.024c-0.125-0.057-0.294,0.004-0.484,0.03c-0.29,0.038-0.441,0.268-0.774,0.071
				c-0.22-0.13-0.19-0.511-0.185-0.874c0.004-0.236,0.088-0.467,0.02-0.687c-0.047-0.151-0.218-0.131-0.31-0.026
				c-0.085,0.101,0.268,1.144-0.074,1.627c-0.214,0.304-0.659-0.026-0.851-0.084c-0.15-0.044-0.345-0.105-0.505-0.014
				c-0.103,0.057-0.149,0.108-0.26,0.026c-0.136-0.098-0.083-0.164-0.07-0.298c0.014-0.137-0.095-0.278-0.179-0.451
				c-0.127-0.264-0.392-0.336-0.308-0.714c0.058-0.25,0.429-0.34,0.775-0.446c0.226-0.069,0.482-0.059,0.66-0.204
				c0.09-0.073,0.067-0.251-0.106-0.23c-0.145,0.017-0.966,0.553-1.533,0.378c-0.354-0.11-0.177-0.636-0.183-0.836
				c-0.004-0.156-0.006-0.36-0.142-0.485c-0.087-0.079-0.149-0.106-0.106-0.239c0.052-0.159,0.13-0.13,0.261-0.159
				c0.133-0.029,0.233-0.177,0.374-0.309c0.212-0.202,0.199-0.476,0.584-0.513c0.256-0.023,0.457,0.302,0.665,0.6
				c0.135,0.192,0.229,0.408,0.397,0.563c0.184,0.17,0.379,0.01,0.249-0.154c-0.35-0.438-0.888-0.768-0.896-1.359
				c-0.004-0.372,0.549-0.365,0.739-0.432c0.148-0.053,0.34-0.12,0.417-0.288c0.048-0.105,0.055-0.173,0.194-0.173
				c0.167,0,0.164,0.084,0.232,0.2c0.069,0.117,0.24,0.168,0.409,0.26c0.257,0.139,0.515,0.042,0.668,0.397
				c0.101,0.235-0.146,0.526-0.364,0.816c-0.142,0.188-0.394,0.323-0.414,0.552c-0.014,0.167,0.067,0.228,0.224,0.191
				c0.214-0.051,0.455-1.082,1.016-1.273c0.353-0.119,0.518,0.41,0.639,0.569c0.096,0.124,0.218,0.287,0.4,0.31
				c0.117,0.013,0.183-0.002,0.226,0.131C44.035,53.749,43.955,53.772,43.867,53.874z"/>
		</g>
	</g>
	<g>
		<path fill="#FFFFFF" d="M54.758,33.456c-0.426,0.003-0.827,0.006-1.118,0.23l-0.075,0.059l-0.272-0.101
			c-0.188-0.07-0.365-0.137-0.549-0.137c-0.003,0-1.927-0.043-2.327-0.054c-0.005,0.162-0.032,0.864-0.032,0.864l-0.083,0.206
			l-0.071,0.015l-0.284,0.059c-0.216,0.031-0.317,0.056-0.37,0.171c-0.003,0.015-0.003,0.035-0.003,0.058
			c0,0.068,0.015,0.156,0.083,0.203c0.003,0.001,0.179,0.02,0.179,0.02c0.16,0.001,0.491,0.004,0.53,0.359
			c0.002,0.027,0.007,0.964,0.007,0.964l0.012,0.696l-0.006,0.021c-0.068,0.257-0.305,0.252-0.406,0.25l-0.083,0.003l-0.045,0.018
			c-0.07,0.016-0.19,0.056-0.199,0.15c-0.001,0.008-0.002,0.025-0.002,0.048c0,0.054,0.011,0.137,0.075,0.166
			c0.007,0.003,0.188,0.042,0.188,0.042c0.146,0.017,0.346,0.042,0.454,0.226l0.022,0.038l-0.004,0.003L50.4,38.48
			c-0.005,0.067-0.009,0.128-0.009,0.18c0,0.105,0.031,0.174,0.079,0.236c0.173,0.003,1.45,0.017,1.45,0.017
			c0.005,0,0.344,0.001,0.344,0.001c0.427-0.005,0.91-0.01,1.295,0.242c0.098,0.037,0.205-0.025,0.371-0.13l0.162-0.099l0.043,0.005
			l2.076,0.017c0.161,0,0.321-0.009,0.462-0.049c0.003-0.114,0.007-0.293,0.007-0.293l0.028-0.527
			c0.086-0.249,0.302-0.275,0.431-0.29l0.118-0.022c0.098-0.04,0.142-0.092,0.152-0.169c-0.001-0.043-0.054-0.11-0.116-0.188
			c-0.048-0.014-0.176-0.052-0.176-0.052l-0.466-0.17l0.035-0.107l-0.013-0.607l0.015-1.212l0.036-0.033
			c0.123-0.158,0.298-0.161,0.425-0.163c0.087-0.002,0.142-0.004,0.168-0.031c0.066-0.082,0.114-0.144,0.114-0.219
			c0-0.011-0.002-0.022-0.004-0.034c-0.016-0.133-0.053-0.157-0.285-0.184c-0.142-0.018-0.302-0.036-0.43-0.147l-0.06-0.051v-0.056
			l-0.01-0.394c0.003-0.058,0.005-0.112,0.005-0.165c0-0.107-0.027-0.193-0.068-0.271c-0.128-0.011-0.524-0.043-0.524-0.043
			s-0.575-0.049-0.639-0.054C55.363,33.42,54.758,33.456,54.758,33.456z"/>
		<path fill="#FFFFFF" d="M33.905,33.456l-0.023,0.004l-0.223-0.017c-0.213-0.024-0.297-0.015-0.341,0.045
			c-0.01,0.114-0.071,0.852-0.071,0.852l-0.034,0.043c-0.145,0.177-0.345,0.164-0.49,0.153c-0.124-0.008-0.183-0.007-0.219,0.034
			c-0.039,0.034-0.054,0.06-0.054,0.105c0,0.033,0.008,0.078,0.025,0.144c0.017,0.055,0.061,0.099,0.237,0.139l0.027,0.006
			c0,0,0.034,0.021,0.041,0.027c0.001,0,0.06,0.003,0.06,0.003c0.08-0.001,0.228-0.001,0.329,0.142l0.021,0.031l0.007,0.038
			c0.043,0.218,0.055,0.425,0.055,0.627c0,0.155-0.007,0.306-0.014,0.456l-0.003,0.787l-0.05,0.067l-0.134,0.138l-0.186,0.013
			c-0.119,0.007-0.23,0.012-0.296,0.064c-0.057,0.052-0.066,0.133-0.068,0.292c0.011,0.015,0.023,0.034,0.023,0.034l0.053,0.073
			l0.062,0.021l0.135,0.013c0.114,0,0.286-0.004,0.42,0.149l0.04,0.046l-0.002,0.027l0.024,0.453
			c-0.003,0.056-0.005,0.106-0.005,0.15c0,0.099,0.028,0.162,0.071,0.217c0.152,0.003,0.737,0.013,0.737,0.013l1.754,0.041
			l0.039,0.028l0.049,0.035c0.121,0.083,0.229,0.148,0.354,0.178c0.18-0.02,0.35-0.085,0.475-0.198l0.049-0.044l1.838-0.001
			c0,0,0.681,0.013,0.897,0.017c0.007-0.053,0.021-0.101,0.021-0.163c0-0.072-0.003-0.149-0.007-0.221l-0.008-0.208
			c-0.004-0.033-0.008-0.065-0.008-0.094c0-0.108,0.031-0.201,0.094-0.27c0.12-0.136,0.298-0.131,0.457-0.126
			c0.253,0.01,0.271-0.017,0.288-0.102c0.013-0.054,0.02-0.104,0.02-0.15c0-0.05-0.014-0.089-0.028-0.125
			c-0.128-0.097-0.318-0.105-0.523-0.105H39.77l-0.04-0.024c-0.221-0.128-0.181-0.367-0.162-0.482
			c-0.061-0.275-0.038-0.574-0.014-0.864l0.018-0.659l0.027-0.059l0.115-0.176l0.061-0.007l0.244-0.03
			c0.149-0.01,0.229-0.018,0.3-0.096c0.008-0.024,0.055-0.127,0.021-0.206c-0.012-0.042-0.115-0.119-0.115-0.119
			c-0.032-0.019-0.176-0.03-0.176-0.03c-0.129,0.006-0.347,0.014-0.445-0.208l-0.015-0.034c0,0-0.014-0.667-0.017-0.801
			c-0.044-0.052-0.115-0.065-0.305-0.048l-0.333-0.004l0.046,0.003l-0.974-0.018c-0.622-0.035-1.21-0.069-1.746,0.167l-0.069,0.03
			l-0.069-0.031c-0.232-0.103-0.511-0.163-0.856-0.184c0.004,0-0.341-0.019-0.341-0.019C34.569,33.417,34.202,33.394,33.905,33.456z
			"/>
		<path stroke="#000000" stroke-width="0.0057" d="M56.702,33.346c0.21,0.27,0.069,0.647,0.124,0.97
			c0.228,0.197,0.72-0.017,0.773,0.43c0.035,0.18-0.07,0.306-0.159,0.415c-0.157,0.161-0.438,0-0.58,0.179
			c-0.054,0.539,0,1.131,0,1.74c0.159,0.108,0.37,0.09,0.546,0.179c0.086,0.109,0.175,0.216,0.175,0.36
			c-0.018,0.144-0.104,0.251-0.247,0.305c-0.139,0.072-0.386,0-0.457,0.196c-0.071,0.288,0.019,0.611-0.036,0.917
			c-0.193,0.089-0.421,0.089-0.633,0.089l-2.076-0.018c-0.193,0.107-0.404,0.306-0.667,0.198c-0.44-0.288-1.038-0.198-1.547-0.215
			l-1.549-0.018c-0.282-0.251-0.07-0.682-0.159-0.988c-0.105-0.179-0.385-0.107-0.561-0.197c-0.159-0.071-0.195-0.252-0.177-0.395
			c0.018-0.18,0.177-0.269,0.334-0.305c0.123-0.072,0.351,0.054,0.403-0.144c0-0.556-0.034-1.094-0.017-1.615
			c-0.035-0.323-0.458-0.126-0.633-0.251c-0.158-0.108-0.176-0.306-0.14-0.484c0.14-0.306,0.493-0.233,0.756-0.324l0.034-0.089
			l0.036-0.935l0.089-0.071l2.408,0.056c0.282,0,0.527,0.123,0.791,0.213c0.511-0.394,1.267-0.197,1.883-0.305
			C55.839,33.331,56.28,33.257,56.702,33.346L56.702,33.346z"/>
		<path stroke="#000000" stroke-width="0.0057" d="M36.191,33.48c0.862-0.378,1.83-0.108,2.779-0.162
			c0.245,0.054,0.616-0.125,0.773,0.144c0,0.287,0,0.555,0.018,0.843c0.088,0.197,0.37,0.036,0.527,0.143
			c0.089,0.054,0.194,0.108,0.211,0.216c0.052,0.125,0.018,0.27-0.052,0.396c-0.176,0.196-0.405,0.125-0.632,0.178l-0.072,0.108
			c0.035,0.521-0.105,0.988,0,1.49c-0.016,0.106-0.053,0.251,0.072,0.324c0.246,0,0.492,0,0.667,0.16
			c0.069,0.126,0.069,0.289,0.035,0.432c-0.106,0.539-0.914-0.072-0.827,0.557c0,0.232,0.053,0.555-0.035,0.772
			c-0.95,0-1.918-0.072-2.815-0.019c-0.157,0.144-0.369,0.233-0.597,0.252c-0.194-0.036-0.335-0.145-0.493-0.252
			c-0.862-0.036-1.707-0.036-2.534-0.053c-0.263-0.234-0.07-0.611-0.158-0.952c-0.14-0.161-0.351-0.036-0.51-0.126
			c-0.123-0.018-0.158-0.145-0.229-0.233c0-0.197,0-0.359,0.141-0.485c0.141-0.107,0.335-0.089,0.51-0.107l0.087-0.09
			c-0.052-0.593,0.088-1.149-0.035-1.777c-0.087-0.126-0.246-0.017-0.351-0.106c-0.159-0.037-0.318-0.091-0.37-0.271
			c-0.034-0.143-0.07-0.286,0.07-0.413c0.193-0.215,0.528,0.037,0.704-0.18l0.07-0.86c0.141-0.251,0.476-0.125,0.722-0.125
			c0.421-0.09,0.949-0.018,1.407,0C35.593,33.3,35.909,33.354,36.191,33.48L36.191,33.48z"/>
		<path fill="#FFFFFF" d="M36.068,33.704l0.07,0.161c0.035,1.202,0.035,2.423,0.035,3.679l-0.035,0.468
			c-0.299,0.018-0.598-0.144-0.932-0.107c-0.335-0.037-0.703,0.035-1.003-0.054c-0.175-0.413-0.053-0.826-0.088-1.274
			c0.019-0.896,0.036-1.993,0.036-2.963c0-0.071,0.089-0.107,0.141-0.125C34.908,33.542,35.576,33.381,36.068,33.704L36.068,33.704z
			"/>
		<path fill="#FFFFFF" d="M33.728,33.596c-0.157,0.125-0.369,0.359-0.298,0.575c0.07,1.508,0,2.853,0.07,4.271l0.124,0.144
			c0.685,0,1.441-0.072,2.109,0.054c0.037,0.018,0.037,0.072,0.019,0.107c-0.176,0.072-0.387,0.037-0.58,0.037l-1.795-0.037
			c-0.123-0.107-0.07-0.358-0.07-0.501c0-0.181,0.052-0.396-0.141-0.503c-0.246-0.055-0.492,0.018-0.651-0.179
			c0.124-0.359,0.687-0.073,0.792-0.468c0.052-0.663-0.053-1.328-0.018-1.957c-0.071-0.358-0.458-0.25-0.703-0.305
			c-0.036-0.036-0.089-0.09-0.071-0.162c0.212-0.215,0.633,0.036,0.792-0.269c0.07-0.288,0.017-0.557,0.052-0.825
			c0.089-0.091,0.246-0.091,0.369-0.055V33.596L33.728,33.596z"/>
		<path fill="#FFFFFF" d="M38.689,33.613c0,1.454,0,2.837-0.019,4.254c-0.704,0.072-1.494-0.054-2.198,0.144
			c-0.159-0.144-0.035-0.376-0.071-0.574c-0.036-0.468,0-0.987-0.018-1.472c0.018-0.7-0.035-1.49,0.018-2.172
			c0.106-0.215,0.353-0.288,0.581-0.288l1.652,0.018L38.689,33.613L38.689,33.613z"/>
		<path fill="#FFFFFF" d="M39.498,33.596c0.053,0.287-0.069,0.664,0.107,0.951c0.175,0.108,0.439,0.055,0.615,0.089
			c0.069,0.072,0.053,0.181,0.017,0.253c-0.193,0.196-0.598-0.055-0.703,0.267c0,0.701-0.037,1.383,0.017,2.101l0.106,0.091
			c0.228,0.035,0.511-0.055,0.668,0.125c0.018,0.107,0,0.214-0.105,0.251c-0.229,0.054-0.563-0.072-0.686,0.18
			c-0.055,0.287,0.034,0.574-0.055,0.861l-0.122,0.054l-2.48-0.035c-0.052-0.037,0-0.072,0.018-0.108l0.247-0.09l2.004,0.018
			c0.211-0.054,0.211-0.322,0.229-0.484c-0.018-1.006,0-1.884-0.018-2.854c-0.017-0.484,0.071-0.951-0.035-1.418
			c-0.018-0.108-0.177-0.179-0.194-0.305C39.233,33.488,39.428,33.488,39.498,33.596L39.498,33.596z"/>
		<path fill="#FFFFFF" d="M55.697,33.524c0.089,0.144,0.071,0.341,0.071,0.503c0,0.862,0.018,1.668-0.019,2.477
			c0,0,0.037,1.095-0.033,1.4l-0.142,0.054c-0.633,0.072-1.3-0.145-1.847,0.178c-0.105,0.02-0.105-0.125-0.123-0.178l0.034-1.85
			c0.037-0.036,0.037-0.054,0.089-0.054c0.071,0.109,0.123,0.216,0.105,0.359l-0.142,0.198l0.088,0.072
			c0.212-0.018,0.494,0.055,0.687-0.035c-0.053-0.108-0.176-0.145-0.247-0.216c-0.247-0.665-0.421-1.365-0.615-2.047
			c0.034-0.25-0.052-0.502,0.123-0.718c0.369-0.234,0.88-0.089,1.338-0.162L55.697,33.524L55.697,33.524z"/>
		<path fill="#FFFFFF" d="M50.825,33.579c-0.035,0.143-0.211,0.251-0.265,0.395c0.019,1.472,0,3.07,0.053,4.595l0.123,0.072
			c0.775,0.018,1.601-0.162,2.269,0.161c0.037,0.018,0.018,0.018,0,0.037c-0.844-0.019-1.689,0.052-2.514-0.019L50.42,38.73
			c-0.035-0.324,0.035-0.629-0.104-0.917c-0.194-0.178-0.757,0.054-0.616-0.358c0.211-0.161,0.545,0.055,0.669-0.216
			c0-0.753,0.036-1.418-0.019-2.117c-0.157-0.215-0.456-0.072-0.667-0.126c-0.07-0.072-0.123-0.178-0.054-0.269
			c0.23-0.197,0.897,0.054,0.776-0.502c0.069-0.233-0.107-0.683,0.209-0.7C50.685,33.524,50.773,33.506,50.825,33.579L50.825,33.579
			z"/>
		<path fill="#FFFFFF" d="M53.094,33.596c0.388,0.125,0.281,0.592,0.299,0.897c-0.123,0.609-0.37,1.166-0.51,1.794
			c-0.035,0.125-0.158,0.144-0.248,0.215c-0.121,0.036-0.175-0.106-0.228-0.181c-0.018-0.538,0.052-0.985,0.018-1.56
			c-0.018-0.091,0.088-0.198,0.176-0.108c0.14,0.071,0.123,0.251,0.175,0.376c0.035,0.054,0.124,0.054,0.142-0.036l0.087-0.556
			c-0.07-0.179-0.229,0.018-0.37,0c-0.263-0.018-0.632,0.055-0.878-0.107c-0.211,0.072-0.159,0.376-0.194,0.574
			c-0.017,0.035,0,0.071,0.017,0.089c0.177-0.106,0.264-0.394,0.51-0.323l0.019,0.539l-0.053,1.166
			c-0.07,0.09-0.246,0.126-0.229,0.251c0.299,0.09,0.669,0,0.968,0.037c0.175,0.018,0.369,0.053,0.511,0
			c0.034-0.037,0.016-0.09-0.018-0.126c-0.106-0.054-0.229-0.143-0.194-0.288c0.052-0.089,0.07-0.267,0.229-0.214
			c0.106,0,0.071,0.143,0.088,0.198c0.019,0.61,0.019,1.274-0.036,1.83c-0.193,0.055-0.316-0.125-0.51-0.125
			c-0.493,0.037-0.95-0.054-1.459,0.019c-0.176-0.072-0.123-0.287-0.123-0.448c-0.018-1.364,0-2.549-0.018-3.931
			c0.018-0.037,0.071-0.055,0.106-0.055C51.986,33.524,52.515,33.542,53.094,33.596L53.094,33.596z"/>
		<path fill="#FFFFFF" d="M56.559,33.613c0.07,0.343-0.07,0.683,0.123,0.989c0.211,0.054,0.546-0.072,0.652,0.142
			c-0.019,0.432-0.598,0.09-0.722,0.432c0.053,0.682-0.053,1.238,0.017,1.975c-0.07,0.054-0.087,0.125-0.035,0.198
			c0.193,0.161,0.44-0.109,0.634,0.07c0.122,0.036,0.053,0.145,0.053,0.217c-0.159,0.232-0.545-0.037-0.652,0.269l-0.035,0.897
			l-0.124,0.053l-2.338-0.017c-0.036-0.038-0.018-0.054,0.017-0.072l0.281-0.108h1.777c0.089-0.018,0.212-0.089,0.212-0.216
			c-0.019-1.418-0.035-2.889-0.035-4.433l-0.211-0.43C56.26,33.488,56.507,33.47,56.559,33.613L56.559,33.613z"/>
		<path fill="#FFFFFF" d="M51.089,34.171c0,1.256,0,2.584,0,3.858c-0.035,0.106-0.158,0.162-0.229,0.233l-0.069-0.055
			c-0.018-0.412,0.017-0.878-0.018-1.273v-0.306c-0.018-0.844-0.018-1.776,0.018-2.638c0.069-0.072,0.14-0.215,0.229-0.252
			C51.089,33.901,51.054,34.009,51.089,34.171L51.089,34.171z"/>
		<path fill="#FFFFFF" d="M56.224,33.973c-0.034,1.005-0.017,1.956,0.019,2.908c-0.019,0.449-0.019,0.843-0.019,1.255
			c-0.017,0.037-0.017,0.055-0.052,0.072c-0.299-0.124-0.193-0.466-0.211-0.734c0.018-0.378-0.035-0.808,0.035-1.185l-0.054-0.125
			l0.019-2.351C56.032,33.651,56.172,33.884,56.224,33.973L56.224,33.973z"/>
		<path fill="#FFFFFF" d="M33.905,33.757c0.07,1.455-0.017,2.854,0.018,4.236c-0.018,0.071-0.087,0.162-0.175,0.162
			c-0.106-0.448-0.088-0.88-0.053-1.33c-0.035-0.915-0.019-1.937-0.019-2.853C33.712,33.883,33.816,33.793,33.905,33.757
			L33.905,33.757z"/>
		<path fill="#FFFFFF" d="M39.146,33.919c-0.018,1.454,0.018,2.89-0.035,4.2c-0.035,0.072-0.105-0.019-0.16-0.055
			c-0.086-0.215-0.015-0.484-0.015-0.699c-0.054-1.167,0-2.353,0-3.536C39.006,33.739,39.111,33.847,39.146,33.919L39.146,33.919z"
			/>
		<path fill="#B9202A" d="M36.656,36.653c0.007-0.003,0.009-0.005,0.009-0.008v-0.001C36.661,36.648,36.661,36.65,36.656,36.653z"/>
		<path fill="#B9202A" d="M34.407,34.541"/>
		<path fill="#B9202A" stroke="#FFFFFF" stroke-width="2.130000e-04" stroke-miterlimit="3.8637" d="M55.25,34.524
			c0.004,0.002,0.007,0.003,0.012,0.002c0.002,0,0.017-0.009,0.017-0.009S55.254,34.524,55.25,34.524z M54.632,35.96"/>
		<path fill="#FFFFFF" d="M53.639,35.75c-0.034,0.09-0.193,0.09-0.28,0.054l-0.088-0.036c0.052-0.198,0-0.43,0.158-0.574
			C53.586,35.301,53.569,35.553,53.639,35.75L53.639,35.75z"/>
		<path fill="#FFFFFF" d="M38.952,38.316c-0.052,0.109-0.209,0.054-0.316,0.089h-0.562c-0.458-0.018-0.915-0.053-1.319,0.036
			c-0.07-0.016-0.141-0.071-0.141-0.16c0.052-0.162,0.246-0.108,0.387-0.162c0.545,0.017,1.196-0.019,1.723,0
			C38.812,38.155,38.899,38.228,38.952,38.316L38.952,38.316z"/>
		<path fill="#FFFFFF" d="M35.998,38.245c0.018,0.088-0.07,0.18-0.158,0.214c-0.562-0.161-1.179-0.054-1.777-0.126l-0.018-0.017
			c0.035-0.109,0.124-0.197,0.246-0.197C34.89,38.119,35.47,38.119,35.998,38.245L35.998,38.245z"/>
		<path fill="#FFFFFF" d="M53.271,38.299c0.052,0.035,0.052,0.126,0,0.143c-0.212,0.252-0.476-0.053-0.756,0
			c-0.458-0.053-0.968,0-1.426-0.053c0.124-0.395,0.669-0.161,0.967-0.233C52.46,38.208,52.919,38.083,53.271,38.299L53.271,38.299z
			"/>
		<path fill="#FFFFFF" d="M55.856,38.208c0.086,0.055,0.175,0.146,0.193,0.234c-0.722,0.09-1.427-0.088-2.111,0.108
			c-0.106-0.018-0.141-0.144-0.106-0.216c0.14-0.161,0.37-0.126,0.581-0.161L55.856,38.208L55.856,38.208z"/>
		<path fill="#FFFFFF" d="M36.58,38.585c0.034,0.145,0.016,0.324-0.106,0.396c-0.071,0.089-0.211,0.107-0.317,0.053
			c-0.105-0.018-0.123-0.145-0.141-0.233c-0.036-0.198,0.158-0.269,0.264-0.413C36.419,38.406,36.509,38.495,36.58,38.585
			L36.58,38.585z"/>
		<path fill="#FFFFFF" d="M53.78,38.693c0.019,0.161,0.019,0.395-0.193,0.395c-0.141,0.017-0.264-0.054-0.298-0.179
			c-0.036-0.179,0.07-0.341,0.193-0.414C53.639,38.478,53.709,38.603,53.78,38.693L53.78,38.693z"/>
		<path stroke="#FFFFFF" stroke-width="2.270000e-04" d="M55.334,34.582c0,0.129,0.089,0.367-0.018,0.458
			c-0.126-0.11-0.142-0.219-0.342-0.274c-0.106,0-0.214,0.019-0.232,0.147c-0.034,0.384,0.341,0.384,0.556,0.64
			c0.197,0.201,0.288,0.531,0.197,0.787c-0.083,0.206-0.179,0.33-0.377,0.33c-0.179,0.036-0.303-0.093-0.448-0.02
			c-0.036,0-0.108,0.037-0.144-0.018l0.018-0.712c0.019-0.037,0.054-0.056,0.091-0.056c0.107,0.238,0.035,0.51,0.357,0.529
			c0.108-0.019,0.197-0.03,0.216-0.177c0.035-0.64-0.789-0.482-0.771-1.14c0.018-0.146,0.037-0.274,0.107-0.404
			c0.145-0.236,0.467-0.091,0.683-0.236C55.316,34.399,55.316,34.526,55.334,34.582L55.334,34.582z"/>
		<path fill="#FFFFFF" d="M45.131,33.607l0.028-0.014c-0.24,0.157-0.468,0.053-0.635-0.025l-0.205-0.074
			c-0.002,0-1.578-0.016-1.578-0.016c0.03-0.003-0.353-0.004-0.353-0.004c-0.26-0.021-0.424-0.018-0.512,0.098
			c-0.007,0.107-0.052,0.821-0.052,0.821l-0.02,0.035c-0.105,0.192-0.313,0.194-0.452,0.196l-0.16,0.013
			c-0.107,0.021-0.163,0.093-0.163,0.189c0,0.014,0.001,0.028,0.002,0.043c0.017,0.127,0.067,0.154,0.333,0.176l0.47,0.091
			l-0.024,0.139l0.017,0.367l-0.002,0.699c0.002-0.03,0.019,0.76,0.019,0.76l0.002,0.067l-0.043,0.052
			c-0.143,0.172-0.351,0.175-0.519,0.177c-0.159,0.003-0.235,0.014-0.283,0.07c-0.02,0.071-0.033,0.134-0.033,0.165
			c0,0.023,0.002,0.037,0.006,0.045c0.043,0.107,0.162,0.126,0.4,0.141l0.448,0.069l-0.001,0.109
			c0.033,0.132,0.042,0.259,0.042,0.385c0,0.091-0.004,0.182-0.009,0.271c0,0-0.005,0.1-0.008,0.172
			c0.113,0.124,0.305,0.128,0.589,0.107l0.316-0.011c-0.015,0,0.769,0,0.769,0h0.801l0.041,0.015l0.439,0.197
			c0.132,0.076,0.25,0.006,0.432-0.116l0.114-0.078h0.047l0.704-0.018c-0.009,0,0.966,0.006,0.966,0.006
			c0.379,0.018,0.742,0.03,1.11-0.018c0.02-0.013,0.037-0.022,0.037-0.07c0-0.027-0.002-0.065-0.009-0.116l0.023-0.37
			c0-0.001,0-0.007,0-0.017c0-0.026-0.002-0.072-0.002-0.072c-0.002-0.029-0.007-0.063-0.007-0.1c0-0.084,0.021-0.183,0.112-0.261
			l0.035-0.03l0.196-0.036c0.204-0.035,0.331-0.067,0.402-0.167c0-0.009,0.004-0.018,0.004-0.027c0-0.054-0.021-0.105-0.062-0.154
			c-0.046-0.067-0.103-0.08-0.233-0.096c-0.125-0.016-0.284-0.035-0.406-0.161l-0.045-0.046l-0.006-0.064
			c-0.024-0.282-0.034-0.531-0.034-0.779c0-0.302,0.014-0.599,0.034-0.952l0.001-0.033l0.016-0.031
			c0.106-0.237,0.34-0.251,0.495-0.262c0.12-0.006,0.194-0.014,0.228-0.06c0.021-0.027,0.035-0.085,0.035-0.145
			c0-0.044-0.007-0.088-0.022-0.125c-0.042-0.098-0.124-0.119-0.316-0.149l-0.397-0.091l0.019-0.088l-0.041-0.521
			c0,0-0.019-0.281-0.025-0.371c-0.026-0.014-0.107-0.057-0.107-0.057c-0.397,0.044-0.796,0.02-1.183-0.005
			C46.284,33.415,45.685,33.377,45.131,33.607z"/>
		<path stroke="#000000" stroke-width="0.0057" d="M48.073,33.282c0.105-0.018,0.21,0.071,0.299,0.125
			c0.088,0.341-0.019,0.628,0.069,0.951c0.228,0.089,0.564,0.018,0.687,0.305c0.053,0.125,0.053,0.34-0.035,0.448
			c-0.176,0.234-0.58,0.02-0.704,0.288c-0.036,0.647-0.052,1.095,0,1.706c0.175,0.179,0.493,0.035,0.651,0.269
			c0.087,0.107,0.123,0.235,0.087,0.378c-0.142,0.233-0.438,0.233-0.687,0.287c-0.104,0.09,0,0.252-0.052,0.377
			c-0.087,0.233,0.124,0.521-0.141,0.665c-0.72,0.108-1.408-0.036-2.146,0.017l-0.704,0.018c-0.192,0.127-0.422,0.323-0.667,0.18
			l-0.44-0.198c-0.527,0.018-1.021-0.017-1.548,0c-0.352-0.017-0.845,0.145-1.073-0.196c0-0.289,0.054-0.576-0.017-0.862
			c-0.265-0.088-0.705,0.036-0.845-0.306c-0.036-0.107,0-0.251,0.035-0.359c0.194-0.287,0.633-0.036,0.827-0.269l-0.017-0.79
			c0.052-0.377-0.018-0.683-0.018-1.041c-0.264-0.108-0.722,0.036-0.774-0.376c-0.035-0.216,0.087-0.396,0.282-0.431
			c0.176-0.054,0.421,0.036,0.51-0.126l0.052-0.844c0.211-0.359,0.722-0.144,1.038-0.197l1.601,0.018
			c0.246,0.036,0.475,0.287,0.721,0.125C46.016,33.049,47.088,33.39,48.073,33.282L48.073,33.282z"/>
		<path fill="#FFFFFF" d="M47.352,33.651c-0.017,1.399,0.017,2.834-0.017,4.234l-0.072,0.036c-0.755,0.072-1.493-0.126-2.18,0.126
			c-0.123-0.071-0.017-0.288-0.051-0.412c0-1.222,0-2.46,0-3.734c0-0.126,0.087-0.234,0.193-0.27
			c0.193-0.144,0.456-0.09,0.703-0.124l1.389,0.034L47.352,33.651L47.352,33.651z"/>
		<path fill="#FFFFFF" d="M44.678,33.667c0.158,0.145,0.141,0.396,0.141,0.61c-0.018,0.683,0.035,1.49-0.035,2.208
			c-0.053,0.036-0.124-0.036-0.176-0.053c-0.212-0.181-0.264-0.448-0.438-0.665c0.069-0.108,0.193-0.125,0.281-0.215
			c0.14-0.144,0.281-0.341,0.21-0.558c-0.017-0.178-0.104-0.359-0.281-0.448c-0.37-0.143-0.845-0.09-1.215-0.053
			c-0.07,0.036-0.088,0.108-0.035,0.162c0.141,0.053,0.194,0.162,0.211,0.286c-0.017,0.485-0.017,0.97-0.07,1.456l-0.194,0.214
			c0.194,0.18,0.458,0.037,0.74,0.091c0.07-0.126-0.124-0.216-0.159-0.36c0.035-0.143,0-0.34,0.088-0.467
			c0.263,0.233,0.351,0.611,0.667,0.827l0.387,0.036c0.035,0.466,0,0.843-0.017,1.327c-0.212-0.035-0.44-0.107-0.669-0.143
			c-0.439,0-0.862,0.036-1.283-0.036l-0.036-0.161c0-1.401,0.018-2.729,0.018-4.146c-0.018-0.073,0.052-0.037,0.089-0.055
			C43.482,33.56,44.169,33.435,44.678,33.667L44.678,33.667z"/>
		<path fill="#FFFFFF" d="M48.178,33.613c0,0.325-0.018,0.611,0.054,0.934c0.209,0.197,0.809-0.09,0.685,0.395
			c-0.194,0.125-0.457,0.036-0.668,0.072l-0.053,0.072c-0.088,0.718,0.053,1.455,0,2.101c0.019,0.072,0.053,0.198,0.158,0.216
			c0.194,0.017,0.494-0.126,0.563,0.125c-0.035,0.431-0.58,0.036-0.721,0.377c-0.054,0.324,0.087,0.61-0.036,0.915l-0.087,0.055
			c-0.897-0.02-1.777-0.02-2.621-0.036c-0.034-0.019-0.017-0.072,0.018-0.091l0.158-0.089c0.704-0.072,1.478,0,2.216-0.072
			c0.105-0.018,0.193-0.108,0.175-0.215c0-1.365,0.019-2.783,0.019-4.308c-0.035-0.216-0.245-0.342-0.282-0.539
			C47.879,33.524,48.108,33.453,48.178,33.613L48.178,33.613z"/>
		<path fill="#FFFFFF" d="M42.34,33.542c-0.036,0.163-0.177,0.215-0.248,0.342c-0.104,0.288,0.018,0.574-0.035,0.88
			c0.018,1.238,0,2.404,0.018,3.625c0,0.089,0.07,0.197,0.158,0.215l1.881,0.037c0.107,0.018,0.229,0.054,0.299,0.125
			c-0.035,0.108-0.176,0.072-0.264,0.089c-0.704-0.017-1.459,0.036-2.145-0.053l-0.071-0.054c-0.018-0.321,0.018-0.663-0.124-0.951
			c-0.211-0.088-0.475,0-0.702-0.071c-0.107-0.054-0.071-0.197,0-0.27c0.227-0.125,0.668,0.072,0.791-0.251
			c-0.018-0.7,0.035-1.364,0-2.082c-0.193-0.288-0.598-0.019-0.773-0.288c0.07-0.413,0.633-0.053,0.791-0.395l0.053-0.843
			C42.075,33.488,42.215,33.524,42.34,33.542L42.34,33.542z"/>
		<path fill="#FFFFFF" d="M42.603,33.793c0.053,1.238-0.07,2.352,0,3.59c-0.106,0.287,0.122,0.7-0.283,0.772
			c-0.069-1.238-0.016-2.567-0.052-3.913c-0.035-0.215,0.088-0.413,0.265-0.521L42.603,33.793L42.603,33.793z"/>
		<path fill="#FFFFFF" d="M47.826,34.009c-0.016,1.364,0.036,2.836-0.053,4.164c-0.07,0.018-0.158-0.072-0.175-0.144
			c-0.018-0.556-0.07-1.112-0.035-1.707c0.035-0.77-0.053-1.687,0.035-2.476C47.685,33.793,47.826,33.901,47.826,34.009
			L47.826,34.009z"/>
		<path fill="#FFFFFF" d="M44.238,34.817c0.071,0.125,0.071,0.286,0.071,0.43c-0.071,0.126-0.106,0.268-0.247,0.306
			c-0.123,0-0.315,0.09-0.351-0.073c0.018-0.233-0.087-0.539,0-0.753C43.869,34.602,44.115,34.655,44.238,34.817L44.238,34.817z"/>
		<path fill="#FFFFFF" d="M44.608,38.245c0.07,0.017,0.159,0.088,0.106,0.18l-0.142,0.124c-0.614-0.233-1.39-0.072-2.04-0.179
			c0.052-0.089,0.104-0.18,0.192-0.251C43.341,38.173,44.01,38.083,44.608,38.245L44.608,38.245z"/>
		<path fill="#FFFFFF" d="M47.403,38.155c0.088,0.052,0.195,0.144,0.195,0.233l-0.088,0.037c-0.739,0.016-1.494-0.092-2.181,0.088
			c-0.104,0.018-0.229,0-0.246-0.125c0.071-0.161,0.281-0.215,0.458-0.233C46.172,38.101,46.789,38.155,47.403,38.155L47.403,38.155
			z"/>
		<path fill="#FFFFFF" d="M45.135,38.747c0,0.143-0.017,0.323-0.176,0.323c-0.124,0.019-0.316,0-0.316-0.18
			c0.035-0.125,0.141-0.232,0.263-0.304C45.031,38.549,45.1,38.676,45.135,38.747L45.135,38.747z"/>
		<path stroke="#FFFFFF" stroke-width="2.270000e-04" d="M46.507,34.547c-0.176,0.089-0.369,0.234-0.316,0.484
			c-0.053,0.431-0.036,0.88-0.019,1.346l0.282,0.251l-0.018,0.037c-0.298,0-0.58,0.053-0.878,0
			c-0.124-0.144,0.158-0.216,0.211-0.324c0.053-0.502,0.105-1.023,0.053-1.579c-0.053-0.162-0.317-0.091-0.246-0.27
			c0.263-0.037,0.616-0.037,0.878,0L46.507,34.547L46.507,34.547z"/>
		<path stroke="#FFFFFF" stroke-width="2.270000e-04" d="M37.967,34.889c-0.174,0.214-0.209-0.198-0.386-0.217
			c-0.105-0.017-0.264-0.053-0.352,0.036c-0.035,0.233-0.071,0.448,0,0.665c0.07,0.054,0.211,0.036,0.299,0.036
			c0.105-0.072,0.159-0.271,0.299-0.253c0.087,0.091-0.035,0.235,0.017,0.324c-0.034,0.144,0.088,0.305-0.071,0.36
			c-0.105-0.055-0.159-0.252-0.298-0.252l-0.247,0.019c-0.088,0.322-0.053,0.609,0,0.915c0.141,0.144,0.316,0.018,0.474,0.018
			c0.23-0.054,0.177-0.377,0.371-0.341c0.053,0.124,0.071,0.323,0.034,0.467l-0.104,0.072l-1.249-0.02
			c-0.054-0.017-0.175-0.017-0.123-0.107c0.404-0.251,0.175-0.736,0.228-1.131c-0.053-0.287,0.159-0.717-0.212-0.897
			c-0.016-0.107,0.107-0.071,0.142-0.107c0.317,0,0.739,0.126,0.984-0.143C37.967,34.439,37.951,34.691,37.967,34.889L37.967,34.889
			z"/>
		<path stroke="#FFFFFF" stroke-width="2.270000e-04" d="M36.051,34.602c-0.352,0.288-0.369,0.79-0.528,1.202
			c-0.14,0.234-0.069,0.574-0.298,0.772c-0.089,0.035-0.159-0.054-0.177-0.126c-0.123-0.556-0.281-1.112-0.476-1.633
			c-0.016-0.162-0.386-0.198-0.175-0.323c0.264-0.037,0.458,0.036,0.704,0.018c0.052,0.161-0.193,0.252-0.125,0.449
			c0.159,0.233,0.106,0.592,0.301,0.824l0.088-0.09c0.017-0.412,0.475-0.789,0.088-1.148c0.087-0.162,0.351-0.053,0.526-0.108
			C36.016,34.475,36.139,34.511,36.051,34.602L36.051,34.602z"/>
	</g>
</g>
</svg>
